# xmcd
#
# Track frame offsets:
#	150
#	14274
#	27719
#	37668
#	50402
#	59887
#	75524
#	87836
#	99508
#	112620
#	127150
#	138749
#	148752
#	163960
#	177306
#	190146
#	202444
#	213052
#	225417
#	239600
#
# Disc length: 3387 seconds
#
# Revision: 1
# Processed by: cddbd v1.5.2PL0 Copyright (c) Steve Scherf et al.
# Submitted via: EZCDAudioConverter 7.1.5.1
#
DISCID=210d3914
DTITLE=Merla Haggard - 40 #1 Hits
DYEAR=2004
DGENRE=Country
TTITLE0=Branded Man
TTITLE1=The Fugitive
TTITLE2=Mama Tried
TTITLE3=Sing Me Back Home
TTITLE4=The Legend Of Bonnie And Clyde
TTITLE5=Hungry Eyes
TTITLE6=Okie From Muskogee
TTITLE7=Workin' Man Blues
TTITLE8=The Fightin' Side Of Me
TTITLE9=Daddy Frank (The Guitar Man)
TTITLE10=Carolyn
TTITLE11=Grandma Harp
TTITLE12=It's Not Love (But It's Not Bad)
TTITLE13=Everybody's Had The Blues
TTITLE14=I Wonder If They Ever Think Of Me
TTITLE15=If We Make It Through December
TTITLE16=Old Man From The Mountain
TTITLE17=Things Aren't Funny Anymore
TTITLE18=Always Wanting You
TTITLE19=It's All In The Movies
EXTD=
EXTT0=
EXTT1=
EXTT2=
EXTT3=
EXTT4=
EXTT5=
EXTT6=
EXTT7=
EXTT8=
EXTT9=
EXTT10=
EXTT11=
EXTT12=
EXTT13=
EXTT14=
EXTT15=
EXTT16=
EXTT17=
EXTT18=
EXTT19=
PLAYORDER=
